<svg xmlns="http://www.w3.org/2000/svg" aria-hidden="true" style="position:absolute;width:0;height:0;overflow:hidden">
    <defs>
        <symbol id="fluent-emoji-high-contrast_chocolate-bar" viewBox="0 0 32 32">
            <path fill="#111" d="m13.82 2.41 7.53 7.54.08-.08a.86.86 0 0 1 1.18-.01l.88.87c.3.3.31.77.08 1.1l-.15.2 6.16 6.15a1.4 1.4 0 0 1 0 1.98l-9.43 9.43a1.4 1.4 0 0 1-1.98 0l-4.45-4.45a.85.85 0 0 1-.6.32.84.84 0 0 1-.65-.24l-2.6-2.6a.86.86 0 0 1-.01-1.19l.08-.08-7.53-7.53a1.4 1.4 0 0 1 0-1.98l9.43-9.43a1.4 1.4 0 0 1 1.98 0zm6.58 8.48-1.75-1.75a.59.59 0 0 0-.85 0l-3.58 3.58a.6.6 0 0 0 0 .86l1.75 1.75.6-.61-1.56-1.57 3.21-3.22 1.57 1.58.61-.62zm-5.07 5.08-1.75-1.76a.59.59 0 0 0-.86 0l-3.59 3.6a.6.6 0 0 0 0 .84l1.76 1.75.61-.61-1.57-1.57 3.22-3.2 1.57 1.56.6-.61zm-6.5-7.78 3.57 3.58c.24.24.62.24.85 0l3.58-3.59a.57.57 0 0 0 .18-.42h.01a.61.61 0 0 0-.18-.43l-3.58-3.58a.6.6 0 0 0-.86 0l-3.58 3.6a.6.6 0 0 0 0 .84zm-5.08 5.07 3.58 3.58a.6.6 0 0 0 .85 0l3.58-3.58a.58.58 0 0 0 .18-.43h.01a.6.6 0 0 0-.18-.43L8.2 8.82a.59.59 0 0 0-.85 0l-3.59 3.6a.6.6 0 0 0 0 .84zm6.94 8.76 2.36 2.36 9.63-13.04-.65-.66-11.35 11.34z" style="fill:var(--color1, #111)"/>
            <path fill="#fd9222" d="m13.82 2.41 7.53 7.54.08-.08a.86.86 0 0 1 1.18-.01l.88.87c.3.3.31.77.08 1.1l-.15.2 6.16 6.15a1.4 1.4 0 0 1 0 1.98l-9.43 9.43a1.4 1.4 0 0 1-1.98 0l-4.45-4.45a.85.85 0 0 1-.6.32.84.84 0 0 1-.65-.24l-2.6-2.6a.86.86 0 0 1-.01-1.19l.08-.08-7.53-7.53a1.4 1.4 0 0 1 0-1.98l9.43-9.43a1.4 1.4 0 0 1 1.98 0zm6.58 8.48-1.75-1.75a.59.59 0 0 0-.85 0l-3.58 3.58a.6.6 0 0 0 0 .86l1.75 1.75.6-.61-1.56-1.57 3.21-3.22 1.57 1.58.61-.62zm-5.07 5.08-1.75-1.76a.59.59 0 0 0-.86 0l-3.59 3.6a.6.6 0 0 0 0 .84l1.76 1.75.61-.61-1.57-1.57 3.22-3.2 1.57 1.56.6-.61zm-6.5-7.78 3.57 3.58c.24.24.62.24.85 0l3.58-3.59a.57.57 0 0 0 .18-.42h.01a.61.61 0 0 0-.18-.43l-3.58-3.58a.6.6 0 0 0-.86 0l-3.58 3.6a.6.6 0 0 0 0 .84zm-5.08 5.07 3.58 3.58a.6.6 0 0 0 .85 0l3.58-3.58a.58.58 0 0 0 .18-.43h.01a.6.6 0 0 0-.18-.43L8.2 8.82a.59.59 0 0 0-.85 0l-3.59 3.6a.6.6 0 0 0 0 .84zm6.94 8.76 2.36 2.36 9.63-13.04-.65-.66-11.35 11.34z" style="fill:var(--color2, #fd9222)"/>
        </symbol>
        <symbol id="phone" viewBox="0 0 32 32">
            <path stroke-linecap="round" stroke-linejoin="round" stroke-width="2.67" d="M29.33 22.56v4a2.69 2.69 0 0 1-1.8 2.54c-.36.12-.73.16-1.1.13a26.4 26.4 0 0 1-11.51-4.1 25.99 25.99 0 0 1-8-8 26.38 26.38 0 0 1-4.1-11.56 2.66 2.66 0 0 1 2.66-2.9h4a2.67 2.67 0 0 1 2.67 2.3c.17 1.27.48 2.53.93 3.74a2.67 2.67 0 0 1-.6 2.81l-1.7 1.7c1.9 3.33 4.67 6.1 8 8l1.7-1.7a2.66 2.66 0 0 1 2.82-.6c1.2.45 2.46.77 3.74.94a2.67 2.67 0 0 1 2.3 2.7z"/>
        </symbol>
        <symbol id="mail" viewBox="0 0 32 32">
            <path stroke-linecap="round" stroke-linejoin="round" stroke-width="2.67" d="M5.33 5.33h21.34c1.46 0 2.66 1.2 2.66 2.67v16c0 1.47-1.2 2.67-2.66 2.67H5.33A2.67 2.67 0 0 1 2.67 24V8c0-1.47 1.2-2.67 2.66-2.67z"/>
            <path stroke-linecap="round" stroke-linejoin="round" stroke-width="2.67" d="M29.33 8 16 17.33 2.67 8"/>
        </symbol>
        <symbol id="user" viewBox="0 0 32 32">
            <path fill="none" stroke="#fd9222" stroke-linecap="round" stroke-linejoin="round" stroke-width="2.67" d="M26.67 28v-2.67A5.33 5.33 0 0 0 21.33 20H10.67a5.33 5.33 0 0 0-5.34 5.33V28M16 14.67A5.33 5.33 0 1 0 16 4a5.33 5.33 0 0 0 0 10.67z" style="stroke:var(--color2, #fd9222)"/>
        </symbol>
        <symbol id="play" viewBox="0 0 32 32">
            <path fill="#f5f4f4" d="M10.9 24V8.73l14.55 7.63L10.91 24z" style="fill:var(--color3, #f5f4f4)"/>
            <path fill="none" stroke="#fff" stroke-width=".73" d="M31.64 16A15.64 15.64 0 1 1 .36 16a15.64 15.64 0 0 1 31.28 0z" style="stroke:var(--color4, #fff)"/>
        </symbol>
        <symbol id="arrow" viewBox="0 0 32 32">
            <path fill="none" stroke="#fafafa" stroke-linecap="round" stroke-linejoin="round" stroke-width="1.33" d="M9.14 16h13.72m0 0-3.43-3.43M22.86 16l-3.43 3.43M16 30.86a14.86 14.86 0 1 0 0-29.72 14.86 14.86 0 0 0 0 29.72z" style="stroke:var(--color5, #fafafa)"/>
        </symbol>
        <symbol id="la_utensil-spoon" viewBox="0 0 32 32">
            <path fill="#fd9222" d="M15.45 14.1a5.15 5.15 0 0 1-1.18-3.28c0-4.32 5.19-8.64 10.37-8.64a5.18 5.18 0 0 1 5.18 5.18c0 5.19-4.32 10.37-8.65 10.37-1.16 0-2.33-.4-3.28-1.18L5.13 29.31a1.73 1.73 0 0 1-2.44-2.44L15.45 14.1z" style="fill:var(--color2, #fd9222)"/>
        </symbol>
        <symbol id="Group" viewBox="0 0 32 32">
            <path fill="#fd9222" d="M16 .76C7.62.76.76 7.62.76 16S7.62 31.24 16 31.24c8.38 0 15.24-6.86 15.24-15.24S24.38.76 16 .76zm0 27.43C9.3 28.19 3.81 22.7 3.81 16S9.3 3.8 16 3.8c6.7 0 12.2 5.5 12.2 12.2S22.7 28.19 16 28.19z" style="fill:var(--color2, #fd9222)"/>
            <path fill="#fd9222" d="M17.98 14.48h-3.96c-.76 0-1.37-.61-1.37-1.37s.6-1.38 1.37-1.38h5.64c.91 0 1.52-.6 1.52-1.52s-.6-1.52-1.52-1.52h-2.14V7.32c0-.92-.6-1.53-1.52-1.53s-1.52.61-1.52 1.52V8.7h-.46a4.42 4.42 0 0 0 0 8.83h3.8c.77 0 1.38.61 1.38 1.38s-.61 1.37-1.37 1.37h-5.64c-.91 0-1.52.6-1.52 1.52s.6 1.52 1.52 1.52h2.29v1.38c0 .9.6 1.52 1.52 1.52s1.52-.61 1.52-1.53v-1.37h.46a4.42 4.42 0 0 0 0-8.83z" style="fill:var(--color2, #fd9222)"/>
        </symbol>
        <symbol id="fi-rr-angle-small-left" viewBox="0 0 32 32">
            <path fill="#fd9222" d="M16.95 17.87a1.33 1.33 0 0 1-1.9 0l-6.1-6.12a1.33 1.33 0 1 0-1.9 1.88l6.12 6.12a4 4 0 0 0 5.66 0l6.12-6.12a1.34 1.34 0 0 0-1.9-1.88l-6.1 6.12z" style="fill:var(--color2, #fd9222)"/>
        </symbol>
        <symbol id="twitter" viewBox="0 0 32 32">
            <path stroke-linecap="round" stroke-linejoin="round" stroke-width="2" d="M30.67 4c-1.28.9-2.7 1.59-4.19 2.04a5.98 5.98 0 0 0-10.48 4v1.33c-2.34.06-4.66-.46-6.76-1.51S4.68 6.3 3.34 4.38c0 0-4.67 12.95 7.33 18.29a15.52 15.52 0 0 1-9.34 2.66C13.33 32 28 25.33 28 10c0-.37-.04-.74-.1-1.1A10.29 10.29 0 0 0 30.66 4z"/>
        </symbol>
        <symbol id="facebook" viewBox="0 0 32 32">
            <path stroke-linecap="round" stroke-linejoin="round" stroke-width="2" d="M24 2.67h-4a6.66 6.66 0 0 0-6.67 6.66v4h-4v5.34h4v10.66h5.34V18.67h4L24 13.33h-5.33v-4A1.33 1.33 0 0 1 20 8h4V2.67z"/>
        </symbol>
        <symbol id="instagram" viewBox="0 0 32 32">
            <path stroke-linecap="round" stroke-linejoin="round" stroke-width="2" d="M22.67 2.67H9.33a6.67 6.67 0 0 0-6.66 6.66v13.34a6.67 6.67 0 0 0 6.66 6.66h13.34a6.67 6.67 0 0 0 6.66-6.66V9.33a6.67 6.67 0 0 0-6.66-6.66z"/>
            <path stroke-linecap="round" stroke-linejoin="round" stroke-width="2" d="M21.33 15.16a5.33 5.33 0 1 1-10.54 1.57 5.33 5.33 0 0 1 10.54-1.57zM23.33 8.67h.02"/>
        </symbol>
        <symbol id="chocolate" viewBox="0 0 32 32">
            <path fill="#fcf1e0" d="M3.94 20.08 14.72 2.65l.64-.67 8.24 5.49.05 3.31 2.01 3.28-8.88 14.08-12.84-8.06z" style="fill:var(--color6, #fcf1e0)"/>
            <path fill="none" stroke="#fd9222" stroke-linecap="round" stroke-linejoin="round" stroke-width="2.67" d="M21.64 23.88 7.45 15.02m3.91-6.42 14.19 8.86m-14.92 8.4L22.37 6.61m4.8 8.18c-3.03-1.9-4.23-3.38-2.27-6.6l-9.63-6L3.54 21.42l14.18 8.87 9.46-15.51z" style="stroke:var(--color2, #fd9222)"/>
        </symbol>
    </defs>
</svg>